<svg width="626" height="340" viewBox="0 0 626 340" fill="none" xmlns="http://www.w3.org/2000/svg">
<path d="M379.789 233.738C380.099 266.652 372.957 291.818 358.361 309.237C343.766 326.655 323.785 335.479 298.419 335.709C272.92 335.957 252.65 327.522 237.61 310.403C222.571 293.283 214.889 268.27 214.566 235.363L214.014 177.488C213.697 144.702 220.839 119.535 235.441 101.989C250.043 84.4431 270.09 75.5618 295.583 75.3451C320.956 75.0967 341.168 83.5926 356.221 100.833C371.273 118.073 378.951 143.083 379.256 175.863L379.789 233.738ZM337.134 169.785C336.925 149.059 333.331 133.756 326.354 123.874C319.377 113.993 309.228 109.112 295.907 109.233C282.631 109.361 272.612 114.435 265.85 124.457C259.088 134.479 255.787 149.849 255.945 170.568L256.611 240.896C256.808 261.73 260.446 277.12 267.525 287.065C274.604 297.01 284.775 301.919 298.038 301.792C311.302 301.665 321.289 296.59 328 286.568C334.711 276.546 337.968 261.061 337.772 240.113L337.134 169.785Z" fill="#BAFF13"/>
<path d="M379.789 233.738C380.099 266.652 372.957 291.818 358.361 309.237C343.766 326.655 323.785 335.479 298.419 335.709C272.92 335.957 252.65 327.522 237.61 310.403C222.571 293.283 214.889 268.27 214.566 235.363L214.014 177.488C213.697 144.702 220.839 119.535 235.441 101.989C250.043 84.4431 270.09 75.5618 295.583 75.3451C320.956 75.0967 341.168 83.5926 356.221 100.833C371.273 118.073 378.951 143.083 379.256 175.863L379.789 233.738ZM337.134 169.785C336.925 149.059 333.331 133.756 326.354 123.874C319.377 113.993 309.228 109.112 295.907 109.233C282.631 109.361 272.612 114.435 265.85 124.457C259.088 134.479 255.787 149.849 255.945 170.568L256.611 240.896C256.808 261.73 260.446 277.12 267.525 287.065C274.604 297.01 284.775 301.919 298.038 301.792C311.302 301.665 321.289 296.59 328 286.568C334.711 276.546 337.968 261.061 337.772 240.113L337.134 169.785Z" fill="#BAFF13"/>
<path d="M404.012 233.509C404.329 266.416 397.187 291.582 382.585 309.008C367.983 326.433 348.002 335.257 322.642 335.48C297.143 335.728 276.873 327.29 261.834 310.164C246.794 293.038 239.122 268.019 238.818 235.105L238.266 177.23C237.949 144.444 245.091 119.278 259.693 101.732C274.295 84.1853 294.342 75.3008 319.835 75.0778C345.208 74.842 365.42 83.338 380.473 100.566C395.525 117.793 403.175 142.816 403.422 175.634L404.012 233.509ZM361.358 169.556C361.155 148.837 357.545 133.546 350.53 123.683C343.514 113.821 333.365 108.94 320.083 109.042C306.807 109.176 296.788 114.251 290.026 124.266C283.264 134.282 279.978 149.655 280.169 170.387L280.844 240.706C281.047 261.546 284.685 276.938 291.758 286.884C298.83 296.829 309.001 301.738 322.271 301.611C335.535 301.477 345.522 296.402 352.233 286.387C358.944 276.371 362.198 260.883 361.995 239.922L361.358 169.556Z" fill="#8ADEC6"/>
<path d="M357.296 276.036C357.354 276.161 350.132 279.544 341.169 283.596C332.206 287.648 324.889 290.821 324.832 290.697C324.775 290.572 331.997 287.189 341.007 283.137C350.018 279.085 357.239 275.912 357.296 276.036Z" fill="#BAFF13"/>
<path d="M362.034 256.445C362.091 256.57 356.125 259.379 348.713 262.724C341.301 266.069 335.25 268.688 335.193 268.563C335.136 268.439 341.092 265.62 348.513 262.275C355.935 258.93 361.977 256.321 362.034 256.445Z" fill="#BAFF13"/>
<path d="M364.212 234.436C364.27 234.56 358.304 237.37 350.892 240.715C343.48 244.06 337.429 246.678 337.372 246.554C337.314 246.43 343.271 243.611 350.692 240.266C358.114 236.921 364.155 234.264 364.212 234.436Z" fill="#BAFF13"/>
<path d="M366.391 212.417C366.448 212.542 360.492 215.361 353.071 218.706C345.649 222.051 339.607 224.66 339.55 224.535C339.493 224.411 345.459 221.601 352.871 218.257C360.283 214.912 366.315 212.284 366.391 212.417Z" fill="#BAFF13"/>
<path d="M368.58 190.408C368.627 190.533 362.671 193.352 355.259 196.697C347.847 200.042 341.796 202.651 341.739 202.526C341.682 202.402 347.647 199.592 355.059 196.238C362.471 192.884 368.523 190.303 368.58 190.408Z" fill="#BAFF13"/>
<path d="M364.212 170.807C364.27 170.932 358.304 173.751 350.892 177.096C343.48 180.441 337.429 183.05 337.372 182.925C337.314 182.801 343.271 179.982 350.692 176.637C358.114 173.292 364.155 170.683 364.212 170.807Z" fill="#BAFF13"/>
<path d="M364.212 149.706C364.27 149.83 358.304 152.65 350.892 155.994C343.48 159.339 337.429 161.948 337.372 161.824C337.314 161.7 343.271 158.881 350.692 155.536C358.114 152.191 364.155 149.582 364.212 149.706Z" fill="#BAFF13"/>
<path d="M362.034 129.838C362.091 129.962 356.125 132.772 348.713 136.117C341.301 139.461 335.25 142.08 335.193 141.956C335.136 141.831 341.092 139.012 348.513 135.667C355.935 132.323 361.977 129.714 362.034 129.838Z" fill="#BAFF13"/>
<path d="M405.915 212.571C405.915 212.618 405.24 212.704 404.06 213.096C402.419 213.699 400.872 214.532 399.464 215.571C397.656 216.842 395.658 218.62 393.365 220.455C390.835 222.438 388.094 224.133 385.192 225.51C379.926 228.046 374.219 229.526 368.389 229.868C367.276 229.964 366.258 229.935 365.373 229.954C364.488 229.973 363.727 229.897 363.109 229.849L361.672 229.706C361.507 229.703 361.343 229.674 361.187 229.62C361.351 229.597 361.517 229.597 361.681 229.62L363.118 229.668H365.373C366.258 229.62 367.276 229.668 368.361 229.515C374.128 229.068 379.763 227.555 384.983 225.052C387.85 223.683 390.567 222.018 393.089 220.082C395.401 218.285 397.409 216.517 399.274 215.304C400.727 214.27 402.332 213.47 404.031 212.934C404.494 212.801 404.964 212.699 405.439 212.628C405.594 212.584 405.755 212.565 405.915 212.571V212.571Z" fill="white"/>
<path d="M400.511 144.134C400.371 144.083 400.237 144.015 400.111 143.934L399.008 143.293C398.435 142.943 397.844 142.624 397.238 142.338C396.456 141.917 395.652 141.537 394.831 141.201L393.403 140.599C392.899 140.398 392.366 140.245 391.815 140.054C390.73 139.652 389.521 139.375 388.256 139.041C382.724 137.777 376.986 137.728 371.434 138.897C370.226 139.154 369.032 139.473 367.857 139.853C367.305 140.035 366.762 140.178 366.258 140.369L364.821 140.943C363.995 141.267 363.185 141.634 362.395 142.042C361.782 142.322 361.188 142.641 360.616 142.997L359.493 143.618C359.236 143.752 359.093 143.819 359.084 143.8C359.192 143.695 359.314 143.605 359.446 143.532L360.511 142.825C361.075 142.448 361.663 142.11 362.271 141.812C363.053 141.372 363.86 140.979 364.688 140.637L366.125 140.025C366.629 139.824 367.181 139.672 367.733 139.48C368.916 139.08 370.119 138.745 371.339 138.477C376.952 137.24 382.771 137.293 388.361 138.63C389.636 138.974 390.854 139.27 391.948 139.691C392.5 139.891 393.042 140.054 393.537 140.274L394.973 140.904C395.792 141.268 396.593 141.673 397.371 142.118C397.97 142.43 398.549 142.781 399.103 143.169L400.168 143.896C400.406 144.02 400.568 144.115 400.511 144.134Z" fill="white"/>
<path d="M151.341 245.732L183.148 247.127L181.674 280.987L149.866 279.591L147.421 335.852L105.556 334.017L108.001 277.757L0 273.016L0.0856324 247.213L115.213 81.1172L158.429 83.0285L151.341 245.732ZM41.9217 240.954L109.476 243.916L113.929 141.296L112.911 140.904L109.105 148.215L41.9217 240.954Z" fill="#BAFF13"/>
<path d="M151.341 245.732L183.148 247.127L181.674 280.987L149.866 279.591L147.421 335.852L105.556 334.017L108.001 277.757L0 273.016L0.0856324 247.213L115.213 81.1172L158.429 83.0285L151.341 245.732ZM41.9217 240.954L109.476 243.916L113.929 141.296L112.911 140.904L109.105 148.215L41.9217 240.954Z" fill="#BAFF13"/>
<path d="M177.923 246.898L209.731 248.294L208.256 282.153L176.449 280.758L174.003 337.018L132.139 335.183L134.584 278.923L26.5352 274.145L26.6208 248.341L141.768 82.3123L184.993 84.2236L177.923 246.898ZM68.5045 242.12L136.106 245.083L140.559 142.462L139.541 142.071L135.735 149.381L68.5045 242.12Z" fill="#8ADEC6"/>
<path d="M564.526 246.124L596.21 243.018L599.493 276.744L567.809 279.859L573.261 335.9L531.586 340L526.163 283.959L418.495 294.529L414.965 268.984L505.687 88.2754L548.741 84.0417L564.526 246.124ZM455.507 256.837L522.842 250.224L512.89 147.967L511.824 147.728L509.103 155.507L455.507 256.837Z" fill="#BAFF13"/>
<path d="M564.526 246.124L596.21 243.018L599.493 276.744L567.809 279.859L573.261 335.9L531.586 340L526.163 283.959L418.495 294.529L414.965 268.984L505.687 88.2754L548.741 84.0417L564.526 246.124ZM455.507 256.837L522.842 250.224L512.89 147.967L511.824 147.728L509.103 155.507L455.507 256.837Z" fill="#BAFF13"/>
<path d="M591.024 243.524L622.708 240.409L626 274.144L594.306 277.269L599.768 333.319L558.084 337.41L552.632 281.369L444.992 291.92L441.481 266.384L532.204 85.6758L575.258 81.4421L591.024 243.524ZM482.014 254.228L549.349 247.643L539.397 145.386L538.322 145.138L535.61 152.917L482.014 254.228Z" fill="#8ADEC6"/>
<path d="M484.127 183.843C483.697 184.199 483.239 184.518 482.757 184.799C481.805 185.391 480.521 186.232 478.875 187.255C475.592 189.29 471.006 192.033 465.906 195.015C460.806 197.997 456.154 200.625 452.757 202.479C451.063 203.434 449.674 204.151 448.713 204.648C448.226 204.922 447.72 205.161 447.2 205.365C447.651 205.03 448.128 204.733 448.627 204.476L452.586 202.173L465.659 194.585L478.694 186.939L482.652 184.627C483.124 184.33 483.617 184.068 484.127 183.843V183.843Z" fill="#BAFF13"/>
<path d="M499.112 154.943C498.677 155.297 498.216 155.617 497.732 155.899C496.781 156.492 495.506 157.333 493.86 158.355C490.568 160.391 485.982 163.133 480.891 166.115C475.801 169.097 471.129 171.725 467.732 173.579C466.039 174.535 464.659 175.251 463.698 175.748C463.209 176.025 462.7 176.265 462.176 176.465C462.629 176.133 463.106 175.836 463.603 175.576L467.561 173.273L480.634 165.685L493.679 158.04L497.637 155.727C498.108 155.428 498.601 155.166 499.112 154.943Z" fill="#BAFF13"/>
<path d="M508.466 199.965C508.124 199.714 507.806 199.432 507.514 199.124L504.907 196.783C502.018 194.235 498.995 191.845 495.849 189.625C494.137 188.389 492.296 187.345 490.359 186.509C488.781 185.844 487.101 185.453 485.392 185.353C483.81 185.287 482.229 185.5 480.721 185.984C480.721 185.984 480.816 185.907 481.016 185.812C481.304 185.674 481.604 185.559 481.91 185.468C483.043 185.116 484.226 184.958 485.411 184.999C487.169 185.055 488.902 185.424 490.53 186.089C492.509 186.91 494.387 187.959 496.125 189.214C499.296 191.439 502.31 193.881 505.145 196.525C506.23 197.538 507.048 198.436 507.647 198.99C507.956 199.283 508.231 199.61 508.466 199.965V199.965Z" fill="white"/>
<path d="M402.548 177.44L395.888 176.389L354.623 163.009L330.493 156.004C327.103 154.776 323.496 154.269 319.901 154.516C316.306 154.763 312.801 155.758 309.609 157.438C298.191 163.267 266.735 192.683 266.735 192.683L289.39 216.145L278.724 263.623C290.665 297.721 314.042 301.63 314.042 301.63C325.469 302.12 336.873 300.226 347.534 296.068C369.237 287.782 392.006 268.277 394.86 259.896C396.573 254.869 397.991 244.299 399.113 232.363L433.48 218.295L442.795 170.511L402.548 177.44Z" fill="#4076BF"/>
<path d="M339.294 164.988C339.332 165.059 339.358 165.137 339.37 165.217C339.417 165.398 339.474 165.618 339.541 165.895C339.684 166.488 339.884 167.377 340.122 168.514C340.826 171.733 341.281 175.001 341.482 178.291C341.604 180.573 341.473 182.861 341.092 185.114C340.631 187.712 339.713 190.208 338.38 192.482C336.836 194.941 334.934 197.154 332.738 199.048C330.502 201.055 328.028 202.87 325.507 204.839C320.141 208.882 314.927 212.542 310.283 215.868C305.64 219.193 301.501 222.165 298.209 224.669L298.105 224.755L298 224.669C295.677 222.818 293.472 220.824 291.397 218.696C290.836 218.124 290.317 217.511 289.846 216.862C289.684 216.642 289.589 216.46 289.513 216.345C289.474 216.284 289.439 216.22 289.408 216.154C289.408 216.154 289.589 216.384 289.922 216.804C290.423 217.422 290.956 218.012 291.52 218.572C293.637 220.635 295.86 222.584 298.181 224.411H297.971C301.244 221.869 305.336 218.84 309.998 215.504C314.66 212.169 319.855 208.49 325.221 204.447C327.733 202.536 330.207 200.672 332.424 198.713C334.59 196.855 336.469 194.685 338 192.272C339.319 190.055 340.231 187.617 340.692 185.076C341.087 182.85 341.237 180.587 341.14 178.329C340.97 175.055 340.569 171.798 339.941 168.581C339.731 167.463 339.57 166.584 339.446 165.943C339.395 165.669 339.357 165.44 339.332 165.255C339.303 165.169 339.29 165.078 339.294 164.988V164.988Z" fill="#382626"/>
<path d="M518.485 186.481C528.142 178.157 531.415 163.181 526.096 151.57L512.49 150.165C515.915 148.27 518.689 145.38 520.45 141.874C522.21 138.367 522.875 134.409 522.357 130.516C518.593 134.429 513.705 137.062 508.377 138.048C503.049 139.033 497.548 138.321 492.643 136.011C486.287 132.858 481.13 126.98 474.146 125.748C467.809 124.629 461.577 127.659 455.507 129.78C449.437 131.902 442.091 133.135 437.067 129.092C433.09 125.891 431.853 120.281 432.11 115.159C432.367 110.036 433.842 105.048 434.156 99.9348C434.383 94.9042 433.514 89.8843 431.61 85.2261C429.705 80.5678 426.81 76.3836 423.128 72.9657C421.897 68.8953 419.699 65.1865 416.723 62.159C413.748 59.1314 410.084 56.8758 406.048 55.5865C402.012 54.2972 397.724 54.0128 393.554 54.7579C389.384 55.503 385.457 57.2551 382.111 59.8634C379.133 62.1761 376.621 65.1674 373.243 66.8398C369.437 68.7512 364.994 68.7512 360.874 69.7068C356.754 70.6625 352.406 73.4722 351.968 77.7249L350.303 86.4311C350.027 87.0523 349.732 87.6639 349.352 88.266C345.85 94.4397 338.676 98.5013 337.106 105.468C336.231 109.358 337.315 113.572 336.012 117.338C334.29 122.298 328.962 125.088 326.497 129.704C323.091 136.05 325.403 147.164 330.855 151.847C336.307 156.53 347.544 161.499 354.566 163C356.469 155.67 358.153 147.833 359.78 139.815C362.634 142.577 365.65 145.205 368.638 147.814C376.449 154.638 384.432 161.566 389.856 170.425C400.16 187.274 400.322 209.608 413.309 224.459C415.85 227.374 418.942 229.964 422.634 231.091C426.325 232.219 430.702 231.617 433.433 228.884C436.658 225.654 437.077 220.206 440.645 217.368C445.402 213.593 452.31 216.603 457.4 219.881C461.092 222.251 464.784 224.755 468.961 226.055C473.138 227.355 478.009 227.269 481.568 224.708C485.126 222.146 486.687 216.68 484.118 213.115C483.09 211.691 481.558 210.697 480.54 209.293C479.522 207.888 479.227 205.594 480.626 204.514C482.024 203.434 484.317 204.514 485.983 205.47C490.067 207.881 494.636 209.348 499.356 209.765C504.076 210.181 508.829 209.536 513.27 207.877C517.711 206.218 521.728 203.586 525.029 200.173C528.331 196.759 530.834 192.65 532.357 188.143C527.668 188.848 522.877 188.274 518.485 186.481V186.481Z" fill="#382626"/>
<path d="M368.494 80.869C366.713 80.8245 364.98 81.4527 363.637 82.6294C362.295 83.806 361.441 85.4457 361.244 87.2242V87.2242L353.546 167.701C352.214 179.017 366.952 203.281 379.026 204.619C391.215 205.967 392.414 200.032 393.993 189.328C396.638 171.419 397.523 164.672 397.514 164.777C397.504 164.882 413.213 164.252 419.036 144.536C421.89 134.731 423.584 118.245 424.507 104.713C425.334 92.5282 419.312 76.6545 407.152 76.3391L368.494 80.869Z" fill="#FFBE9D"/>
<path d="M419.198 115.369C419.119 116.05 418.774 116.673 418.239 117.099C417.704 117.526 417.022 117.721 416.343 117.643C416.013 117.626 415.689 117.543 415.391 117.399C415.093 117.255 414.826 117.052 414.607 116.802C414.388 116.553 414.221 116.262 414.116 115.947C414.01 115.632 413.969 115.299 413.993 114.968C414.077 114.287 414.422 113.667 414.956 113.24C415.49 112.813 416.169 112.613 416.848 112.683C417.179 112.7 417.504 112.784 417.802 112.929C418.101 113.074 418.368 113.277 418.587 113.528C418.806 113.778 418.973 114.07 419.078 114.386C419.183 114.702 419.224 115.037 419.198 115.369V115.369Z" fill="#382626"/>
<path d="M420.292 110.16C419.988 110.523 417.933 109.205 415.145 109.405C412.357 109.606 410.388 111.145 410.093 110.829C409.94 110.686 410.216 110.055 411.044 109.338C412.191 108.416 413.593 107.872 415.059 107.781C416.506 107.672 417.949 108.031 419.179 108.803C420.102 109.405 420.435 110.027 420.292 110.16Z" fill="#382626"/>
<path d="M394.717 116.821C394.384 117.156 392.462 115.636 389.674 115.57C386.886 115.503 384.803 116.841 384.508 116.525C384.365 116.363 384.708 115.761 385.621 115.139C386.85 114.329 388.3 113.925 389.769 113.983C391.218 114.02 392.618 114.519 393.766 115.407C394.603 116.057 394.86 116.716 394.717 116.821Z" fill="#382626"/>
<path d="M399.913 131.625C399.913 131.462 401.683 131.395 404.518 131.405C405.232 131.405 405.917 131.405 406.107 130.898C406.261 130.175 406.191 129.421 405.907 128.739C405.47 126.929 405.01 125.018 404.528 123.005C402.625 114.929 401.359 108.325 401.673 108.249C401.987 108.173 403.795 114.671 405.689 122.747C406.145 124.734 406.573 126.627 406.983 128.481C407.324 129.406 407.324 130.423 406.983 131.348C406.848 131.583 406.661 131.785 406.437 131.937C406.213 132.09 405.957 132.189 405.689 132.227C405.281 132.279 404.869 132.279 404.461 132.227C401.645 132.007 399.904 131.778 399.913 131.625Z" fill="#382626"/>
<path d="M397.515 164.758C388.052 163.65 379.081 159.921 371.606 153.988C371.606 153.988 376.564 168.724 396.877 169.498L397.515 164.758Z" fill="#EB996E"/>
<path d="M395.108 112.033C394.67 112.712 392.035 111.718 388.762 111.355C385.489 110.992 382.701 111.259 382.434 110.495C382.32 110.132 382.929 109.539 384.138 109.071C385.723 108.496 387.424 108.312 389.095 108.536C390.774 108.72 392.385 109.303 393.795 110.237C394.861 110.982 395.308 111.708 395.108 112.033Z" fill="#382626"/>
<path d="M419.874 106.405C419.417 107.064 417.467 106.51 415.116 106.596C412.766 106.682 410.873 107.236 410.359 106.596C410.15 106.28 410.426 105.64 411.244 104.99C412.351 104.184 413.683 103.749 415.05 103.748C416.399 103.707 417.728 104.084 418.856 104.828C419.779 105.439 420.074 106.089 419.874 106.405Z" fill="#382626"/>
<path d="M393.176 136.699C394.453 135.823 396.019 135.481 397.543 135.744C398.32 135.851 399.036 136.226 399.569 136.804C400.146 137.659 400.399 138.693 400.283 139.719C400.288 140.338 400.194 140.955 400.007 141.545C399.812 142.134 399.396 142.625 398.846 142.911C398.236 143.132 397.573 143.166 396.943 143.007C395.897 142.872 394.893 142.507 394.003 141.936C393.561 141.651 393.185 141.273 392.902 140.827C392.62 140.382 392.437 139.88 392.367 139.356C392.308 138.829 392.42 138.298 392.685 137.84C392.951 137.382 393.356 137.022 393.842 136.814" fill="#EB996E"/>
<path d="M400.683 142.835C400.483 142.911 400.112 142.3 399.446 141.468C398.619 140.377 397.58 139.464 396.393 138.784C395.207 138.104 393.896 137.671 392.539 137.512C391.483 137.359 390.778 137.349 390.731 137.139C390.683 136.929 391.349 136.575 392.558 136.451C394.152 136.326 395.747 136.685 397.134 137.483C398.526 138.272 399.645 139.469 400.341 140.914C400.855 142.013 400.864 142.777 400.683 142.835Z" fill="#382626"/>
<path d="M352.472 162.168C359.085 160.84 364.184 155.134 366.458 148.789C368.732 142.443 368.609 135.457 368.009 128.72C368.026 128.284 367.955 127.849 367.8 127.441C367.644 127.034 367.408 126.662 367.105 126.35C366.106 125.575 364.67 126.206 363.585 126.866C359.416 129.412 355.421 132.234 351.625 135.314C348.086 138.181 344.584 141.478 343.224 145.826C341.14 152.516 345.545 160.496 352.291 162.254" fill="#382626"/>
<path d="M504.469 160.61L473.29 110.265L464.669 92.5472C464.669 92.5472 461.92 88.887 459.065 85.7619C454.384 80.63 449.75 84.6151 449.75 84.6151C449.491 84.0093 449.05 83.4997 448.489 83.1571C447.928 82.8146 447.275 82.6561 446.62 82.7038C445.779 82.7033 444.95 82.9031 444.201 83.2868C443.451 83.6706 442.803 84.2273 442.31 84.9114C442.31 84.9114 441.035 83.4874 437.495 83.2676C436.691 83.2579 435.906 83.513 435.26 83.9939C434.099 82.9714 431.967 81.4996 429.922 82.2451C428.323 82.828 418.628 90.2345 416.24 93.9616C415.06 95.8061 417.248 98.1952 420.198 97.0771C421.411 96.6832 422.594 96.2009 423.737 95.634C424.632 95.1287 425.442 94.4836 426.135 93.7227C426.135 93.7227 423.69 98.0232 426.135 98.7782C426.936 98.9395 427.762 98.9229 428.556 98.7298C429.35 98.5367 430.092 98.1716 430.731 97.6601C431.682 96.8764 432.729 95.8538 433.747 94.8504L433.633 95.0224C432.281 97.0293 435.802 100.001 437.505 98.7973C438.297 98.2363 439.056 97.63 439.779 96.9815C443.737 99.8486 438.247 103.566 435.926 103.375C432.353 103.103 428.765 103.103 425.193 103.375C423.176 103.537 421.387 104.025 420.283 105.143C418.97 106.5 420.35 109.348 422.186 109.635C425.602 110.17 429.96 110.925 434.489 112.1C439.817 113.476 453.775 118.035 453.775 118.035L455.136 119.144L474.099 165.599L441.634 172.508L434.384 213.832L492.995 197.853C506.182 190.876 512.471 173.225 504.469 160.61Z" fill="#FFBE9D"/>
<path d="M453.784 117.949C453.532 117.912 453.283 117.852 453.042 117.767L450.94 117.165L443.223 114.862L437.904 113.247C436.001 112.655 433.956 112.043 431.786 111.489C429.527 110.876 427.233 110.401 424.917 110.065C423.645 110.043 422.386 109.813 421.187 109.386C420.868 109.241 420.582 109.029 420.35 108.765C420.223 108.613 420.126 108.437 420.064 108.249L419.998 107.742C419.897 107.066 419.939 106.376 420.121 105.716C420.355 105.039 420.839 104.478 421.473 104.149C422.05 103.848 422.656 103.605 423.28 103.423C424.517 103.067 425.801 102.909 427.086 102.955C429.56 102.955 431.891 103.337 434.118 103.241C435.199 103.216 436.277 103.11 437.343 102.926C438.38 102.735 439.37 102.467 440.34 102.219C442.133 101.655 444.011 101.413 445.887 101.502C447.428 101.65 448.936 102.037 450.359 102.649C451.43 103.097 452.472 103.611 453.48 104.187C454.308 104.656 454.936 105.047 455.383 105.305C455.603 105.433 455.813 105.577 456.011 105.736C455.772 105.644 455.542 105.528 455.326 105.391L453.423 104.359C452.407 103.817 451.362 103.332 450.293 102.907C448.889 102.333 447.407 101.978 445.897 101.855C444.062 101.789 442.23 102.044 440.483 102.61C439.531 102.869 438.523 103.155 437.467 103.356C436.377 103.555 435.273 103.67 434.165 103.7C431.901 103.805 429.541 103.471 427.124 103.442C425.903 103.405 424.684 103.556 423.509 103.891C422.348 104.273 421.025 104.684 420.654 105.869C420.5 106.462 420.464 107.079 420.55 107.685L420.616 108.125C420.65 108.243 420.712 108.351 420.797 108.44C420.988 108.65 421.218 108.822 421.473 108.947C422.623 109.339 423.826 109.552 425.041 109.577C427.377 109.926 429.69 110.417 431.967 111.049C434.146 111.613 436.182 112.244 438.085 112.855L443.394 114.528L451.063 116.984L453.137 117.672C453.361 117.744 453.578 117.837 453.784 117.949Z" fill="#EB996E"/>
<path d="M429.741 82.3123C429.798 82.3887 428.276 83.2679 426.03 84.9786C424.72 85.9818 423.474 87.067 422.3 88.2279C420.968 89.5276 419.57 91.0949 417.914 92.4806C417.085 93.0498 416.469 93.8805 416.163 94.8411C416.046 95.2644 416.1 95.717 416.314 96.1002C416.528 96.4834 416.884 96.766 417.305 96.8863C418.125 97.1165 418.989 97.1329 419.817 96.9341C420.565 96.7945 421.298 96.5833 422.005 96.3033C423.396 95.7102 424.694 94.9184 425.859 93.9524C425.625 94.2977 425.336 94.6014 425.002 94.8507C424.142 95.5818 423.181 96.1837 422.148 96.6378C421.427 96.9456 420.678 97.1824 419.912 97.345C419.014 97.5789 418.07 97.5789 417.172 97.345C416.636 97.1952 416.181 96.8393 415.905 96.3544C415.629 95.8696 415.554 95.2949 415.697 94.7551C416.022 93.6878 416.691 92.7596 417.6 92.1175C419.227 90.7222 420.626 89.2504 421.996 87.9125C423.185 86.756 424.457 85.6891 425.802 84.7205C426.963 83.8891 427.943 83.2966 428.656 82.8952C428.998 82.6666 429.362 82.4714 429.741 82.3123V82.3123Z" fill="#EB996E"/>
<path d="M441.643 86.2495C441.304 86.7096 440.936 87.1469 440.54 87.5587L437.409 91.0183L432.719 96.112C431.781 97.145 430.666 97.9997 429.426 98.635C428.747 98.9786 427.999 99.1647 427.238 99.1797C426.833 99.1866 426.432 99.1124 426.056 98.9614C425.68 98.8105 425.338 98.5858 425.05 98.3005C424.754 97.9691 424.573 97.5497 424.536 97.1059C424.504 96.694 424.546 96.2796 424.66 95.8826C424.877 95.1332 425.218 94.4257 425.668 93.7897V93.7897C427.352 92.0026 428.913 90.3206 430.311 88.7724C431.71 87.2242 433.109 86.0105 434.231 84.9497C434.714 84.4429 435.261 84.0027 435.858 83.6405C436.342 83.4257 436.862 83.3088 437.39 83.2964C438.237 83.2391 438.732 83.2964 438.684 83.4111C438.259 83.3598 437.828 83.3792 437.409 83.4684C436.912 83.5113 436.426 83.6407 435.973 83.8507C435.412 84.2323 434.898 84.6781 434.441 85.1791C433.356 86.2686 432.014 87.5301 430.635 89.0591C429.255 90.5882 427.704 92.3275 426.03 94.1338C425.613 94.7155 425.291 95.3609 425.078 96.0451C424.98 96.3862 424.941 96.7419 424.964 97.0963C425.003 97.4326 425.142 97.7492 425.364 98.0042C425.855 98.4755 426.511 98.7331 427.191 98.721C427.875 98.7079 428.548 98.5414 429.16 98.2336C430.349 97.6289 431.422 96.8167 432.328 95.8349L437.086 90.8176L440.33 87.4727L441.234 86.5744C441.488 86.345 441.624 86.2367 441.643 86.2495Z" fill="#EB996E"/>
<path d="M456.22 90.8558C456.22 90.8558 456.22 91.1521 455.839 91.4196C455.618 91.5931 455.363 91.7182 455.09 91.7869C454.818 91.8557 454.534 91.8665 454.258 91.8189C453.981 91.7712 453.717 91.666 453.483 91.51C453.249 91.3541 453.05 91.1508 452.899 90.9131C452.68 90.55 452.68 90.2728 452.737 90.2633C452.794 90.2537 452.927 90.4449 453.175 90.6933C453.489 91.0166 453.894 91.2365 454.336 91.3241C454.783 91.3905 455.241 91.3206 455.649 91.1234C455.972 90.9705 456.162 90.808 456.22 90.8558Z" fill="#EB996E"/>
<path d="M457.363 95.2422C457.258 95.3283 456.545 94.6115 455.917 93.5316C455.459 92.9243 455.185 92.1979 455.127 91.4387C455.251 91.3909 455.726 92.251 456.345 93.2831C456.779 93.8818 457.122 94.5421 457.363 95.2422V95.2422Z" fill="#EB996E"/>
<path d="M459.464 112.33C459.048 111.727 458.741 111.053 458.56 110.342C458.018 108.654 457.754 106.888 457.78 105.115C457.815 103.341 458.136 101.586 458.732 99.9157C458.928 99.2074 459.251 98.5406 459.683 97.947C458.881 100.26 458.417 102.678 458.303 105.124C458.34 107.57 458.731 109.997 459.464 112.33V112.33Z" fill="#EB996E"/>
<path d="M485.078 178.548C484.983 178.548 484.888 177.535 484.393 175.978C484.097 175.07 483.722 174.19 483.27 173.35C482.148 171.297 480.588 169.519 478.703 168.141C477.935 167.579 477.116 167.09 476.258 166.679C474.793 165.981 473.794 165.723 473.813 165.666C474.054 165.656 474.296 165.689 474.526 165.762C475.177 165.901 475.814 166.099 476.429 166.354C477.332 166.734 478.193 167.208 478.998 167.768C480.981 169.144 482.595 170.988 483.699 173.139C484.148 174.013 484.502 174.932 484.755 175.882C484.929 176.507 485.047 177.147 485.107 177.793C485.137 178.045 485.128 178.3 485.078 178.548Z" fill="#EB996E"/>
<path d="M376.25 270.58C373.567 270.109 370.804 270.462 368.324 271.593C364.09 269.682 358.866 272.959 358.866 272.959C357.335 272.224 348.105 278.283 348.105 278.283L336.612 283.73L275.213 237.905L292.616 219.748L268.23 194.26L239.685 223.79C236.189 227.591 234.164 232.524 233.977 237.695C233.702 243.2 235.036 248.666 237.813 253.42C240.591 258.174 244.691 262.009 249.609 264.454L321.921 301.725C327.475 301.415 332.986 300.554 338.372 299.154C344.613 297.52 355.279 292.761 355.279 292.761C355.279 292.761 355.279 293.086 357.182 296.804C360.617 303.493 365.65 296.268 365.65 296.268C366.151 297.443 366.81 298.543 367.61 299.537C371.959 303.77 374.975 298.084 374.975 298.084C374.975 298.084 376.278 300.368 380.16 298.667C384.042 296.966 379.599 285.23 379.599 285.23C379.599 285.23 380.902 287.782 383.405 284.552C385.907 281.322 380.408 271.459 376.25 270.58Z" fill="#FFBE9D"/>
<path d="M367.562 272.195C367.8 272.028 368.074 271.92 368.362 271.88C369.133 271.71 369.934 271.737 370.693 271.956C371.81 272.275 372.854 272.811 373.766 273.533C374.315 273.943 374.828 274.4 375.298 274.899C375.772 275.486 376.174 276.128 376.497 276.811C377.624 279.09 378.563 281.459 379.304 283.892C379.589 284.848 379.779 285.584 379.903 286.119C379.992 286.39 380.033 286.675 380.027 286.96C379.96 286.96 379.618 285.823 378.971 283.998C378.132 281.621 377.156 279.294 376.05 277.031C375.75 276.397 375.373 275.803 374.927 275.263C374.483 274.783 374.003 274.339 373.49 273.934C372.639 273.236 371.673 272.693 370.636 272.329C369.638 272.032 368.582 271.987 367.562 272.195V272.195Z" fill="#EB996E"/>
<path d="M374.955 298.112C374.735 297.78 374.553 297.424 374.412 297.052L373.071 294.127C371.938 291.652 370.283 288.269 368.703 284.418C368.068 282.586 367.228 280.833 366.201 279.19C365.314 277.901 364.094 276.88 362.671 276.237C361.725 275.778 360.672 275.589 359.626 275.692C358.884 275.788 358.504 275.989 358.485 275.941C358.466 275.893 358.57 275.874 358.751 275.778C359.015 275.646 359.297 275.552 359.588 275.501C360.68 275.314 361.803 275.457 362.814 275.912C364.324 276.545 365.626 277.591 366.572 278.932C367.641 280.587 368.51 282.365 369.16 284.227C370.73 288.049 372.338 291.471 373.394 293.984C373.917 295.236 374.346 296.268 374.593 296.975C374.755 297.34 374.876 297.721 374.955 298.112V298.112Z" fill="#EB996E"/>
<path d="M346.771 283.367C347.069 283.153 347.388 282.971 347.723 282.822L350.463 281.493C351.053 281.216 351.672 280.91 352.366 280.605C353.148 280.292 353.992 280.167 354.83 280.241C355.764 280.317 356.659 280.647 357.418 281.197C358.184 281.826 358.829 282.591 359.321 283.453C359.845 284.313 360.273 285.201 360.653 286.023C361.034 286.845 361.481 287.638 361.9 288.384C362.728 289.865 363.508 291.194 364.079 292.359C364.548 293.27 364.955 294.212 365.297 295.179C365.449 295.522 365.551 295.886 365.601 296.259C365.525 296.259 365.011 294.777 363.774 292.522C363.156 291.394 362.357 290.094 361.5 288.613C361.072 287.868 360.644 287.075 360.225 286.243C359.807 285.412 359.407 284.542 358.903 283.711C358.442 282.904 357.846 282.183 357.142 281.579C356.464 281.058 355.659 280.729 354.811 280.624C354.042 280.54 353.263 280.638 352.537 280.91C351.852 281.188 351.196 281.493 350.634 281.732L347.828 283.003C347.491 283.167 347.137 283.289 346.771 283.367Z" fill="#EB996E"/>
<path d="M348.105 278.292C347.85 278.504 347.569 278.681 347.267 278.818C346.715 279.133 345.907 279.573 344.898 280.108C342.891 281.178 340.093 282.631 336.991 284.198C333.89 285.765 331.073 287.161 329.018 288.155L326.582 289.301C326.282 289.461 325.962 289.58 325.631 289.655C325.891 289.443 326.175 289.263 326.478 289.12C327.03 288.814 327.838 288.374 328.847 287.839C330.854 286.769 333.652 285.326 336.754 283.749C339.855 282.172 342.672 280.786 344.717 279.802C345.745 279.305 346.62 278.913 347.163 278.646C347.458 278.482 347.775 278.363 348.105 278.292V278.292Z" fill="#EB996E"/>
<path d="M276.03 238.02C273.631 237.656 271.198 237.576 268.78 237.781C266.38 238.144 264.03 238.786 261.777 239.693C262.35 239.235 262.992 238.873 263.68 238.622C265.288 237.929 266.986 237.472 268.723 237.265C270.465 237.059 272.227 237.104 273.956 237.399C274.676 237.492 275.377 237.702 276.03 238.02Z" fill="#EB996E"/>
<path d="M411.624 72.4782C396.417 72.2596 381.238 73.8637 366.41 77.2565C362.975 78.0497 359.341 79.0628 357.019 81.7195C354.555 84.5292 354.165 88.5335 353.803 92.2319C353.41 96.7746 353.016 101.314 352.623 105.85C351.971 106.974 351.249 108.056 350.463 109.09C346.886 113.782 342.328 117.691 339.046 122.622C335.763 127.554 333.993 134.09 336.639 139.366C338.246 142.558 341.215 144.813 343.384 147.642C347.067 152.42 348.265 158.642 350.416 164.309C352.566 169.976 356.448 175.777 362.376 176.885C365.23 177.43 368.142 176.828 370.987 177.249C375.24 177.87 378.817 180.67 382.195 183.336C385.573 186.003 389.245 188.717 393.527 189.147C397.808 189.577 402.709 186.662 402.794 182.342C401.206 183.241 399.405 183.689 397.583 183.639C395.761 183.588 393.988 183.041 392.452 182.056C389.959 180.402 388.351 177.726 386.21 175.643C380.948 170.521 372.48 168.896 368.817 162.522C365.963 157.485 367.076 151.168 368.389 145.501C369.521 140.589 370.682 135.266 369.264 130.545C369.377 129.785 369.437 129.019 369.445 128.251C369.445 123.224 367.495 117.834 369.826 113.391C372.909 107.504 381.795 106.758 384.907 100.9C386.724 97.4881 386.086 93.1303 388.065 89.8141C389.921 86.6986 393.641 85.2651 397.181 84.491C400.72 83.7169 404.44 83.3633 407.561 81.5284C410.682 79.6935 413.041 75.8135 411.624 72.4782Z" fill="#382626"/>
<path d="M448.009 87.9028C447.876 88.1688 447.71 88.4162 447.514 88.6387C447.171 89.0974 446.667 89.7473 446.01 90.55C444.716 92.1173 442.852 94.2198 440.663 96.4274C439.579 97.4978 438.56 98.7019 437.162 99.1416C436.511 99.3665 435.805 99.3665 435.154 99.1416C434.596 98.9085 434.138 98.4856 433.86 97.947C433.485 97.1971 433.362 96.3457 433.508 95.5196C433.524 95.2212 433.599 94.9289 433.727 94.6594C433.758 94.9517 433.758 95.2464 433.727 95.5387C433.658 96.3141 433.82 97.0926 434.193 97.7749C434.449 98.2153 434.849 98.553 435.325 98.7306C435.883 98.9258 436.49 98.9258 437.048 98.7306C438.266 98.3388 439.246 97.192 440.34 96.1025C442.519 93.914 444.412 91.8498 445.782 90.3685C446.468 89.4974 447.212 88.6736 448.009 87.9028V87.9028Z" fill="#EB996E"/>
<path d="M455.277 87.9028C455.121 88.1784 454.926 88.4296 454.697 88.6483C454.307 89.107 453.746 89.7568 453.003 90.5596L450.444 93.3406L448.922 94.9653C448.395 95.5765 447.816 96.1393 447.19 96.6472C446.522 97.1813 445.717 97.5129 444.868 97.6029C444.457 97.6461 444.041 97.5807 443.662 97.4131C443.283 97.2455 442.955 96.9815 442.708 96.6472C442.479 96.3234 442.356 95.936 442.356 95.5387C442.378 95.1761 442.489 94.8247 442.68 94.5161C443.032 93.9427 443.394 93.5031 443.708 93.0635C444.335 92.1938 444.859 91.4962 445.23 91.0183C445.401 90.7541 445.61 90.5159 445.848 90.3111C445.729 90.6025 445.576 90.8784 445.392 91.133C445.068 91.6395 444.592 92.3658 443.993 93.2642C443.698 93.7133 443.336 94.2198 443.042 94.7168C442.868 94.959 442.775 95.2499 442.775 95.5482C442.775 95.8466 442.868 96.1374 443.042 96.3797C443.246 96.6452 443.516 96.8522 443.825 96.9797C444.134 97.1072 444.471 97.1507 444.802 97.106C445.552 97.0251 446.264 96.7337 446.857 96.265C447.479 95.7919 448.056 95.2608 448.579 94.6786L450.13 93.073L452.765 90.3589C453.517 89.5944 454.136 88.9827 454.573 88.5622C454.776 88.3108 455.013 88.0888 455.277 87.9028V87.9028Z" fill="#EB996E"/>
<path d="M26.2852 54.9865L26.7991 61.0848L4.39856 62.9728L2.04703 35.0717L23.9295 33.2274L24.4434 39.3258L10.3733 40.5116L10.7697 45.215L23.1658 44.1702L23.6629 50.0693L11.2669 51.1141L11.6969 56.216L26.2852 54.9865Z" fill="#BAFF13"/>
<path d="M51.2205 51.5602L46.9158 51.923L47.5406 59.3367L39.6486 60.0019L37.2971 32.1008L50.0518 31.0258C52.5762 30.813 54.8043 31.0534 56.736 31.747C58.6655 32.414 60.2012 33.4888 61.3431 34.9715C62.4827 36.4276 63.141 38.2052 63.318 40.3044C63.4882 42.324 63.1588 44.1313 62.3298 45.7266C61.5252 47.293 60.2818 48.5753 58.5997 49.5734L65.3574 57.8351L56.9074 58.5473L51.2205 51.5602ZM55.3462 40.9763C55.2365 39.6743 54.7395 38.6992 53.8553 38.0512C52.9711 37.4032 51.7185 37.1475 50.0976 37.2841L45.7131 37.6536L46.4018 45.8246L50.7863 45.4551C52.4072 45.3185 53.6004 44.87 54.3659 44.1097C55.1292 43.3228 55.456 42.2784 55.3462 40.9763Z" fill="#BAFF13"/>
<path d="M89.1953 48.3596L84.8905 48.7224L85.5153 56.1362L77.6233 56.8013L75.2718 28.9002L88.0266 27.8252C90.551 27.6125 92.779 27.8529 94.7108 28.5464C96.6403 29.2134 98.176 30.2882 99.3178 31.7709C100.457 33.227 101.116 35.0047 101.293 37.1039C101.463 39.1234 101.134 40.9308 100.305 42.526C99.5 44.0925 98.2566 45.3748 96.5745 46.3729L103.332 54.6345L94.8821 55.3467L89.1953 48.3596ZM93.321 37.7758C93.2112 36.4737 92.7142 35.4987 91.83 34.8506C90.9458 34.2026 89.6932 33.9469 88.0723 34.0835L83.6879 34.453L84.3765 42.6241L88.761 42.2545C90.3819 42.1179 91.5751 41.6695 92.3406 40.9092C93.1039 40.1223 93.4307 39.0778 93.321 37.7758Z" fill="#BAFF13"/>
<path d="M129.715 52.9729C126.766 53.2215 124.056 52.821 121.586 51.7714C119.142 50.7196 117.15 49.1481 115.609 47.0568C114.094 44.9632 113.22 42.5347 112.987 39.7712C112.754 37.0076 113.209 34.4671 114.352 32.1496C115.521 29.8299 117.223 27.947 119.456 26.501C121.715 25.0528 124.32 24.2044 127.27 23.9558C130.219 23.7072 132.916 24.1088 135.359 25.1607C137.83 26.2102 139.822 27.7818 141.336 29.8753C142.878 31.9666 143.765 34.3941 143.997 37.1576C144.23 39.9211 143.762 42.4628 142.593 44.7825C141.45 47.1 139.749 48.9828 137.489 50.4311C135.256 51.8771 132.665 52.7243 129.715 52.9729ZM129.164 46.4361C130.573 46.3174 131.82 45.8778 132.907 45.1171C133.993 44.3565 134.818 43.3504 135.382 42.0986C135.943 40.8203 136.158 39.3972 136.026 37.8295C135.894 36.2617 135.445 34.9079 134.68 33.7681C133.913 32.6018 132.93 31.7346 131.731 31.1666C130.532 30.5986 129.229 30.3739 127.821 30.4926C126.412 30.6113 125.165 31.051 124.078 31.8116C122.991 32.5722 122.168 33.5917 121.606 34.87C121.043 36.1218 120.827 37.5315 120.959 39.0993C121.091 40.6671 121.541 42.0341 122.308 43.2005C123.073 44.3402 124.055 45.1941 125.254 45.7621C126.452 46.3302 127.756 46.5548 129.164 46.4361Z" fill="#BAFF13"/>
<path d="M169.349 41.6042L165.044 41.967L165.669 49.3808L157.777 50.0459L155.425 22.1448L168.18 21.0698C170.704 20.8571 172.932 21.0975 174.864 21.791C176.794 22.458 178.329 23.5328 179.471 25.0155C180.611 26.4716 181.269 28.2493 181.446 30.3485C181.616 32.368 181.287 34.1754 180.458 35.7706C179.653 37.3371 178.41 38.6194 176.728 39.6175L183.486 47.8791L175.035 48.5913L169.349 41.6042ZM173.474 31.0203C173.365 29.7183 172.868 28.7433 171.983 28.0952C171.099 27.4472 169.847 27.1915 168.226 27.3281L163.841 27.6976L164.53 35.8687L168.914 35.4991C170.535 35.3625 171.728 34.9141 172.494 34.1537C173.257 33.3669 173.584 32.3224 173.474 31.0203Z" fill="#BAFF13"/>
<path d="M31.2676 54.5665L31.7816 60.6649L9.38099 62.5529L7.02945 34.6518L28.9119 32.8075L29.4259 38.9059L15.3557 40.0917L15.7521 44.795L28.1482 43.7503L28.6454 49.6494L16.2493 50.6941L16.6793 55.796L31.2676 54.5665Z" fill="#8ADEC6"/>
<path d="M56.2029 51.1403L51.8982 51.5031L52.523 58.9168L44.631 59.5819L42.2795 31.6809L55.0343 30.6059C57.5586 30.3931 59.7867 30.6335 61.7184 31.3271C63.6479 31.994 65.1836 33.0689 66.3255 34.5515C67.4652 36.0076 68.1235 37.7853 68.3004 39.8845C68.4706 41.904 68.1412 43.7114 67.3123 45.3067C66.5076 46.8731 65.2643 48.1554 63.5822 49.1535L70.3399 57.4152L61.8898 58.1274L56.2029 51.1403ZM60.3286 40.5564C60.2189 39.2543 59.7219 38.2793 58.8377 37.6313C57.9535 36.9832 56.7009 36.7275 55.08 36.8641L50.6956 37.2337L51.3842 45.4047L55.7687 45.0352C57.3896 44.8986 58.5828 44.4501 59.3483 43.6898C60.1116 42.9029 60.4384 41.8584 60.3286 40.5564Z" fill="#8ADEC6"/>
<path d="M94.1777 47.9397L89.8729 48.3025L90.4978 55.7162L82.6058 56.3814L80.2542 28.4803L93.009 27.4053C95.5334 27.1926 97.7614 27.433 99.6932 28.1265C101.623 28.7935 103.158 29.8683 104.3 31.351C105.44 32.8071 106.098 34.5847 106.275 36.684C106.445 38.7035 106.116 40.5109 105.287 42.1061C104.482 43.6726 103.239 44.9548 101.557 45.953L108.315 54.2146L99.8646 54.9268L94.1777 47.9397ZM98.3034 37.3558C98.1936 36.0538 97.6967 35.0787 96.8125 34.4307C95.9282 33.7827 94.6757 33.527 93.0548 33.6636L88.6703 34.0331L89.359 42.2041L93.7434 41.8346C95.3643 41.698 96.5576 41.2495 97.3231 40.4892C98.0864 39.7024 98.4131 38.6579 98.3034 37.3558Z" fill="#8ADEC6"/>
<path d="M134.698 52.553C131.748 52.8016 129.038 52.4011 126.568 51.3515C124.124 50.2997 122.132 48.7281 120.591 46.6368C119.076 44.5433 118.203 42.1148 117.97 39.3512C117.737 36.5877 118.192 34.0472 119.335 31.7297C120.504 29.41 122.205 27.5271 124.438 26.0811C126.698 24.6329 129.303 23.7845 132.252 23.5359C135.202 23.2873 137.898 23.6889 140.342 24.7407C142.812 25.7903 144.804 27.3619 146.319 29.4554C147.86 31.5467 148.747 33.9741 148.98 36.7377C149.213 39.5012 148.745 42.0428 147.575 44.3626C146.433 46.6801 144.731 48.5629 142.472 50.0112C140.239 51.4571 137.647 52.3044 134.698 52.553ZM134.147 46.0162C135.555 45.8975 136.803 45.4578 137.889 44.6972C138.976 43.9366 139.801 42.9304 140.364 41.6787C140.926 40.4004 141.14 38.9773 141.008 37.4095C140.876 35.8418 140.427 34.488 139.662 33.3482C138.895 32.1819 137.912 31.3147 136.713 30.7467C135.515 30.1787 134.211 29.954 132.803 30.0727C131.395 30.1914 130.147 30.6311 129.061 31.3917C127.974 32.1523 127.15 33.1718 126.589 34.4501C126.025 35.7018 125.809 37.1116 125.942 38.6794C126.074 40.2471 126.523 41.6142 127.291 42.7805C128.056 43.9203 129.038 44.7742 130.236 45.3422C131.435 45.9102 132.738 46.1349 134.147 46.0162Z" fill="#8ADEC6"/>
<path d="M174.331 41.1843L170.026 41.5471L170.651 48.9608L162.759 49.626L160.408 21.7249L173.162 20.6499C175.687 20.4372 177.915 20.6776 179.847 21.3711C181.776 22.0381 183.312 23.1129 184.454 24.5956C185.593 26.0517 186.252 27.8293 186.428 29.9286C186.599 31.9481 186.269 33.7554 185.44 35.3507C184.636 36.9171 183.392 38.1994 181.71 39.1976L188.468 47.4592L180.018 48.1714L174.331 41.1843ZM178.457 30.6004C178.347 29.2984 177.85 28.3233 176.966 27.6753C176.082 27.0273 174.829 26.7716 173.208 26.9082L168.824 27.2777L169.512 35.4487L173.897 35.0792C175.518 34.9426 176.711 34.4941 177.476 33.7338C178.24 32.9469 178.566 31.9025 178.457 30.6004Z" fill="#8ADEC6"/>
<path d="M436.125 70.4629L443.737 56.6152C438.851 48.8195 437.046 39.4703 438.675 30.4053C440.304 21.3403 445.25 13.2151 452.54 7.6268C459.83 2.03847 468.938 -0.60883 478.073 0.205244C487.209 1.01932 495.71 5.23588 501.907 12.0262C508.104 18.8164 511.548 27.6893 511.563 36.9008C511.578 46.1122 508.161 54.996 501.986 61.8061C495.81 68.6161 487.322 72.8598 478.19 73.703C469.057 74.5463 459.941 71.9281 452.633 66.3631V66.3631L436.125 70.4629Z" fill="white"/>
<path d="M436.125 70.4619L452.652 66.2569L452.585 66.4576L452.005 65.7217L452.766 66.2856C455.105 68.0465 457.641 69.5282 460.321 70.7008C463.512 72.0796 466.882 72.9967 470.33 73.4245C472.239 73.6639 474.165 73.7342 476.087 73.6347C477.038 73.5678 478.085 73.5296 479.103 73.434L482.157 72.9275C491.268 71.0214 499.315 65.7007 504.659 58.0477C507.628 53.816 509.665 48.9976 510.635 43.9133C511.609 38.5317 511.388 33.0005 509.988 27.7146C508.562 22.1958 505.852 17.0959 502.081 12.8348L500.587 11.2197C500.092 10.6749 499.512 10.264 498.979 9.72883C498.454 9.22345 497.901 8.74806 497.324 8.30488L495.573 7.01472C495.014 6.58848 494.425 6.20209 493.813 5.85835L491.91 4.73066L490.007 3.77499C489.391 3.45215 488.755 3.16809 488.104 2.92444C482.929 0.919818 477.371 0.112969 471.843 0.563923C466.613 0.962403 461.535 2.5157 456.972 5.11293C448.766 9.79366 442.657 17.4544 439.902 26.52C438.812 30.385 438.305 34.3925 438.399 38.4086C438.618 44.8431 440.522 51.1059 443.918 56.5664V56.6237V56.6906L436.163 70.4714L443.708 56.5664V56.6906C440.251 51.2249 438.298 44.9366 438.047 38.4659C437.932 34.413 438.429 30.366 439.522 26.4627C442.276 17.2852 448.425 9.51559 456.705 4.74977C461.327 2.1173 466.47 0.538175 471.767 0.124314C477.368 -0.334157 483.001 0.479139 488.247 2.50394C488.92 2.74898 489.578 3.03624 490.216 3.36405L492.176 4.31972L494.079 5.43786C494.717 5.79442 495.33 6.19351 495.915 6.63245L497.618 7.91305C498.227 8.33355 498.732 8.86873 499.303 9.35612C499.873 9.84351 500.425 10.3118 500.93 10.8661L502.48 12.5481C506.31 16.8612 509.057 22.0319 510.492 27.6286C511.885 32.9852 512.087 38.5843 511.082 44.028C510.104 49.1879 508.034 54.0765 505.011 58.3631C499.599 66.1007 491.447 71.4682 482.224 73.3671L479.122 73.8736C478.104 73.9692 477.086 73.9979 476.087 74.0648C474.146 74.16 472.2 74.08 470.273 73.8259C466.792 73.3866 463.393 72.4468 460.178 71.0353C457.472 69.8446 454.916 68.3335 452.566 66.5341L452.738 66.362L452.861 66.5149H452.671L436.125 70.4619Z" fill="#263238"/>
<path d="M464.659 30.706L469.417 30.6582C469.408 30.1127 469.508 29.571 469.712 29.0654C469.916 28.5598 470.219 28.1006 470.604 27.7153C470.988 27.33 471.446 27.0264 471.95 26.8227C472.454 26.619 472.994 26.5194 473.537 26.5297C474.339 26.4854 475.135 26.6973 475.81 27.135C476.485 27.5728 477.005 28.214 477.295 28.9667C477.554 29.591 477.662 30.2679 477.61 30.9422C477.559 31.6165 477.35 32.2691 477 32.8467C476.201 34.1942 474.44 35.427 471.215 34.8918L471.32 45.7005H476.077L475.991 39.3071C477.923 38.7161 479.608 37.5053 480.789 35.8603C481.969 34.2152 482.58 32.2267 482.528 30.1995C482.461 23.1944 476.191 21.5984 473.508 21.6558C471.462 21.7036 464.488 22.2674 464.659 30.706Z" fill="#8ADEC6"/>
<path d="M476.135 47.8857L471.35 47.9319L471.393 52.4233L476.178 52.3772L476.135 47.8857Z" fill="#8ADEC6"/>
</svg>
