<svg width="116" height="116" viewBox="0 0 116 116" fill="none" xmlns="http://www.w3.org/2000/svg">
<path d="M58 0C89.2516 0 116 26.7484 116 58C116 89.2516 89.2516 116 58 116C26.7484 116 0 89.2516 0 58C0 26.7484 26.7484 0 58 0Z" fill="white"/>
<path d="M84.2204 41.2106C86.9837 43.9715 86.9837 48.4512 84.2204 51.2121L55.9278 79.5048C54.5461 80.8864 52.7378 81.5772 50.927 81.5772C49.1163 81.5772 47.3079 80.8864 45.9263 79.5048L31.78 65.3584C29.0167 62.5975 29.0167 58.1179 31.78 55.357C34.5432 52.5937 39.0182 52.5937 41.7814 55.357L50.927 64.5026L74.219 41.2106C76.9822 38.4474 81.4572 38.4474 84.2204 41.2106Z" fill="#BAFF13"/>
<path d="M104.205 38.6205C101.642 32.6658 97.9896 27.293 93.3482 22.6519C88.7068 18.0104 83.3342 14.3576 77.3796 11.7948C71.1908 9.13102 64.6705 7.78052 57.9998 7.78052C48.9315 7.78052 39.4787 10.8772 30.6632 16.7354C29.5786 17.4561 29.2837 18.9196 30.0044 20.0039C30.7252 21.0885 32.1886 21.3832 33.2729 20.6626C41.3128 15.32 49.863 12.496 57.9998 12.496C82.6656 12.496 103.504 33.3342 103.504 58C103.504 82.6658 82.6656 103.504 57.9998 103.504C33.334 103.504 12.4957 82.6658 12.4957 58C12.4957 49.8649 15.3191 41.3142 20.6603 33.2729C21.3808 32.1881 21.0856 30.7249 20.0011 30.0044C18.916 29.2839 17.4531 29.5793 16.7326 30.6639C10.876 39.4811 7.78027 48.9336 7.78027 58C7.78027 64.6707 9.13078 71.191 11.7943 77.3796C14.3571 83.3342 18.01 88.707 22.6514 93.3482C27.2928 97.9896 32.6653 101.642 38.62 104.205C44.8088 106.869 51.3291 108.22 57.9998 108.22C64.6705 108.22 71.1908 106.869 77.3793 104.206C83.334 101.643 88.7068 97.9899 93.348 93.3484C97.9894 88.707 101.642 83.3345 104.205 77.3798C106.869 71.191 108.219 64.6707 108.219 58C108.219 51.3293 106.869 44.809 104.205 38.6205Z" fill="#182C47"/>
<path fill-rule="evenodd" clip-rule="evenodd" d="M44.259 81.172L30.1126 67.0256C28.3311 65.2456 27.3496 62.8775 27.3496 60.3578C27.3496 57.8381 28.3311 55.47 30.1133 53.6892C31.8944 51.9081 34.2622 50.9269 36.7805 50.9269C39.2988 50.9269 41.6666 51.9081 43.4484 53.6899L50.9268 61.1683L72.5516 39.5435C74.3334 37.7618 76.7012 36.7805 79.2195 36.7805C81.7378 36.7805 84.1057 37.7618 85.8874 39.5435C87.6689 41.3236 88.6504 43.6917 88.6504 46.2114C88.6504 48.7311 87.6689 51.0992 85.8867 52.88L57.5947 81.172C55.813 82.9537 53.4449 83.935 50.9268 83.935C48.4088 83.935 46.0407 82.9537 44.259 81.172ZM36.7805 55.6423C35.5219 55.6423 34.3381 56.1332 33.4469 57.0241C32.5557 57.9149 32.065 59.0985 32.065 60.3577C32.065 61.617 32.5557 62.8006 33.4462 63.6906L47.5932 77.8376C48.4845 78.7286 49.6683 79.2195 50.9268 79.2195C52.1854 79.2195 53.3692 78.7286 54.2604 77.8376L82.5531 49.545C83.4443 48.6542 83.935 47.4706 83.935 46.2114C83.935 44.9521 83.4443 43.7685 82.5538 42.8785C81.6619 41.9868 80.4781 41.4959 79.2195 41.4959C77.961 41.4959 76.7771 41.9868 75.8859 42.8778L50.9268 67.8369L40.1141 57.0241C39.2229 56.1332 38.039 55.6423 36.7805 55.6423Z" fill="#182C47"/>
<path d="M24.7562 22.3984C23.4547 22.3984 22.3984 23.4546 22.3984 24.7561C22.3984 26.0576 23.4547 27.1138 24.7562 27.1138C26.0576 27.1138 27.1139 26.0576 27.1139 24.7561C27.1139 23.4546 26.0576 22.3984 24.7562 22.3984Z" fill="#182C47"/>
</svg>
