<svg width="40" height="48" viewBox="0 0 40 48" fill="none" xmlns="http://www.w3.org/2000/svg">
<path fill-rule="evenodd" clip-rule="evenodd" d="M29.9937 4.41681H36.8677V36.9903L9.92985 0.497798C9.52721 -0.0476596 8.75982 -0.162543 8.21585 0.241198C7.67188 0.64494 7.5573 1.41442 7.95995 1.95987L37.1082 41.4468C37.8112 42.3991 39.3186 41.9005 39.3186 40.7157V3.18806C39.3186 2.50943 38.7699 1.9593 38.0932 1.9593H28.7683C28.0915 1.9593 27.5429 2.50943 27.5429 3.18806V16.3481C27.5429 17.0267 28.0915 17.5768 28.7683 17.5768C29.445 17.5768 29.9937 17.0267 29.9937 16.3481V4.41681ZM3.01333 43.23H9.88738V31.2988C9.88738 30.6202 10.436 30.07 11.1128 30.07C11.7896 30.07 12.3382 30.6202 12.3382 31.2988V44.4588C12.3382 45.1374 11.7896 45.6875 11.1128 45.6875H1.78792C1.11114 45.6875 0.5625 45.1374 0.5625 44.4588V6.93111C0.5625 5.74633 2.06991 5.24778 2.77287 6.20007L31.9211 45.687C32.3238 46.2324 32.2092 47.0019 31.6652 47.4056C31.1212 47.8094 30.3539 47.6945 29.9512 47.149L3.01333 10.6565V43.23Z" fill="#BAFF13"/>
</svg>
