<svg width="410" height="294" viewBox="0 0 410 294" fill="none" xmlns="http://www.w3.org/2000/svg">
<circle cx="204.812" cy="85" r="85" fill="#182C47"/>
<path fill-rule="evenodd" clip-rule="evenodd" d="M227.975 40.2044H243.895V115.46L181.508 31.1501C180.575 29.8899 178.798 29.6245 177.538 30.5573C176.278 31.49 176.013 33.2678 176.945 34.528L244.452 125.756C246.08 127.956 249.571 126.805 249.571 124.067V37.3655C249.571 35.7977 248.3 34.5267 246.733 34.5267H225.137C223.569 34.5267 222.299 35.7977 222.299 37.3655V67.7696C222.299 69.3375 223.569 70.6085 225.137 70.6085C226.704 70.6085 227.975 69.3375 227.975 67.7696V40.2044ZM165.489 129.876H181.409V102.311C181.409 100.743 182.679 99.4719 184.247 99.4719C185.814 99.4719 187.085 100.743 187.085 102.311V132.715C187.085 134.283 185.814 135.554 184.247 135.554H162.651C161.083 135.554 159.812 134.283 159.812 132.715V46.013C159.812 43.2758 163.304 42.1239 164.932 44.3241L232.438 135.552C233.37 136.813 233.105 138.59 231.845 139.523C230.585 140.456 228.808 140.191 227.876 138.93L165.489 54.62V129.876Z" fill="#BAFF13"/>
<path fill-rule="evenodd" clip-rule="evenodd" d="M394.966 230.513C397.452 231.705 399.376 233.186 400.738 234.957L409.114 225.763C406.322 223.176 403.036 221.235 399.257 219.941C395.477 218.647 391.749 218 388.071 218C384.802 218 381.585 218.426 378.418 219.277C375.251 220.128 372.425 221.422 369.94 223.159C367.454 224.895 365.445 227.091 363.913 229.747C362.38 232.403 361.614 235.57 361.614 239.247C361.614 242.652 362.159 245.496 363.249 247.777C364.338 250.058 365.751 251.982 367.488 253.548C369.224 255.115 371.182 256.375 373.362 257.328C375.541 258.281 377.72 259.099 379.899 259.78L386.335 261.925C388.378 262.606 390.148 263.406 391.646 264.325C393.145 265.245 394.336 266.334 395.222 267.594C396.107 268.854 396.55 270.437 396.55 272.344C396.55 274.319 396.158 275.97 395.375 277.298C394.592 278.626 393.57 279.733 392.31 280.618C391.051 281.504 389.638 282.134 388.071 282.508C386.505 282.883 384.973 283.07 383.474 283.07C380.614 283.07 377.703 282.355 374.741 280.925C371.778 279.495 369.412 277.554 367.641 275.102L358.448 283.683C361.308 287.088 364.985 289.659 369.48 291.395C373.974 293.132 378.571 294 383.27 294C386.811 294 390.182 293.523 393.383 292.57C396.584 291.616 399.376 290.186 401.759 288.28C404.143 286.373 406.05 283.972 407.48 281.078C408.91 278.184 409.625 274.796 409.625 270.914C409.625 267.373 408.961 264.41 407.633 262.027C406.305 259.643 404.603 257.668 402.526 256.102C400.448 254.536 398.167 253.276 395.681 252.323C393.196 251.369 390.795 250.518 388.48 249.769C386.437 249.156 384.564 248.543 382.862 247.93C381.159 247.317 379.712 246.602 378.52 245.785C377.328 244.968 376.392 243.98 375.711 242.823C375.03 241.665 374.69 240.269 374.69 238.634C374.69 236.864 375.081 235.349 375.864 234.089C376.647 232.829 377.652 231.807 378.878 231.024C380.103 230.241 381.465 229.662 382.964 229.288C384.462 228.913 385.96 228.726 387.458 228.726C389.978 228.726 392.481 229.322 394.966 230.513ZM0 219.839H17.0591L50.6667 273.978H50.871V219.839H63.7419V292.161H47.3978L13.0753 236.285H12.871V292.161H0V219.839ZM100.108 219.839H148.016V231.075H112.979V249.462H146.178V260.29H112.979V280.72H149.855V292.161H100.108V219.839ZM177.845 219.839L200.319 253.548L175.292 292.161H190.819L207.776 263.763L225.448 292.161H241.69L215.743 253.855L237.808 219.839H222.996L208.286 244.559L193.372 219.839H177.845ZM328.107 265.602C328.107 269.961 327.358 273.893 325.86 277.401C324.362 280.908 322.319 283.887 319.731 286.339C317.143 288.79 314.078 290.68 310.537 292.008C306.996 293.336 303.148 294 298.994 294C294.84 294 290.992 293.336 287.451 292.008C283.91 290.68 280.828 288.79 278.207 286.339C275.585 283.887 273.542 280.908 272.077 277.401C270.613 273.893 269.881 269.961 269.881 265.602V219.839H282.752V265.091C282.752 267.203 283.025 269.297 283.569 271.374C284.114 273.451 285.017 275.306 286.276 276.941C287.536 278.575 289.205 279.903 291.282 280.925C293.359 281.946 295.93 282.457 298.994 282.457C302.059 282.457 304.629 281.946 306.707 280.925C308.784 279.903 310.452 278.575 311.712 276.941C312.972 275.306 313.874 273.451 314.419 271.374C314.964 269.297 315.236 267.203 315.236 265.091V219.839H328.107V265.602Z" fill="#182C47"/>
</svg>
