<svg xmlns="http://www.w3.org/2000/svg" width="21" height="18" viewBox="0 0 21 18"><g><g><path fill="#ffffff" d="M19.738 7.527a1.5 1.5 0 0 0-.26-.02H4.663L5 7.358c.302-.149.589-.357.835-.6L10 2.604a1.565 1.565 0 0 0 .207-1.99 1.503 1.503 0 0 0-2.1-.324C8.053.33 8 .373 8 .42L.44 7.927a1.501 1.501 0 0 0 0 2.124L8 17.562c.541.585 1.492.584 2.078-.003.046-.047.09-.096.13-.148a1.565 1.565 0 0 0-.208-1.99l-4.158-4.16c-.22-.261-.474-.405-.751-.547l-.45-.203h14.754A1.594 1.594 0 0 0 21 9.25a1.53 1.53 0 0 0-1.262-1.723z"/></g></g></svg>