<svg xmlns="http://www.w3.org/2000/svg" width="24" height="24" viewBox="0 0 24 24"><g><g><path fill="#182c47" d="M6.196 11L12 16.756l5.804-5.824h-3.31V2H9.12v9zm-3.429-.611C2.243 9.864 2.616 9 3.36 9h3.752V.833c0-.46.372-.833.832-.833h7.73c.46 0 .832.372.832.833v8.091h4.134c.744 0 1.117.901.593 1.425L12.573 19a.815.815 0 0 1-1.18 0zM23 17.314c.554 0 1 .45 1 1.004V23c0 .554-.446 1-1 1H1c-.554 0-1-.446-1-1v-4.682c0-.553.446-.999 1-.999.553 0 1 .446 1 1V22h20v-3.687c0-.553.447-.999 1-.999z"/></g></g></svg>