<svg xmlns="http://www.w3.org/2000/svg" width="28" height="25" viewBox="0 0 28 25"><g><g><path fill="#182c47" d="M25.475 11l-9.652 8v-3.944a.982.982 0 0 0-.286-.69.982.982 0 0 0-.69-.286c-5.29 0-8.985.302-12.847 5.597C2.247 14.462 3.949 8.094 14.858 8c.537 0 .97-.454.97-1V3.056zM28 11a.983.983 0 0 0-.354-.741L15.475.223a1.019 1.019 0 0 0-1.04-.131.986.986 0 0 0-.56.908v5C8 6.312 3.943 8.43 1.818 12.366 0 15.787 0 19.808 0 22.47v.611c0 .446.305.834.733.919a.473.473 0 0 0 .267.063.973.973 0 0 0 .835-.497C5.833 16.513 9.14 16.063 13.875 16v5.088c0 .377.217.725.56.912a1.05 1.05 0 0 0 1.04-.158l12.17-10.07A.988.988 0 0 0 28 11z"/></g></g></svg>